<svg xmlns="http://www.w3.org/2000/svg" xmlns:xlink="http://www.w3.org/1999/xlink" width="500" zoomAndPan="magnify" viewBox="0 0 375 374.999991" height="500" preserveAspectRatio="xMidYMid meet" version="1.0"><defs><clipPath id="id1"><path d="M 55.320312 65.53125 L 319.320312 65.53125 L 319.320312 296.53125 L 55.320312 296.53125 Z M 55.320312 65.53125 " clip-rule="nonzero"/></clipPath><clipPath id="id2"><path d="M 55.320312 78.570312 L 319.320312 78.570312 L 319.320312 309.570312 L 55.320312 309.570312 Z M 55.320312 78.570312 " clip-rule="nonzero"/></clipPath></defs><g clip-path="url(#id1)"><path fill="#334355" d="M 148.238281 242.792969 L 148.238281 194.949219 L 187.320312 172.222656 L 226.402344 194.949219 L 226.402344 242.394531 L 319.320312 296.21875 L 319.320312 141.523438 L 187.320312 65.371094 L 55.320312 141.523438 L 55.320312 296.21875 L 147.042969 243.191406 Z M 230.390625 240.398438 L 230.390625 192.953125 L 187.320312 167.835938 L 144.25 192.953125 L 144.25 240.398438 L 130.292969 248.375 L 130.292969 184.980469 L 187.320312 152.289062 L 244.347656 184.980469 L 244.347656 248.375 Z M 77.253906 279.074219 L 77.253906 154.28125 L 187.320312 90.488281 L 297.386719 154.28125 L 297.386719 279.074219 L 283.429688 271.097656 L 283.429688 162.253906 L 186.921875 106.4375 L 90.414062 162.253906 L 90.414062 271.5 Z M 94.800781 164.25 L 187.320312 110.824219 L 279.839844 164.25 L 279.839844 268.707031 L 265.882812 260.734375 L 265.882812 172.222656 L 187.320312 126.769531 L 108.757812 172.222656 L 108.757812 260.734375 L 94.800781 268.707031 Z M 112.746094 174.613281 L 187.320312 131.554688 L 261.894531 174.613281 L 261.894531 258.738281 L 247.9375 250.765625 L 247.9375 182.589844 L 186.921875 147.503906 L 125.90625 182.589844 L 125.90625 250.765625 L 111.949219 258.738281 L 111.949219 174.613281 Z M 59.308594 143.914062 L 187.320312 70.15625 L 315.332031 143.914062 L 315.332031 289.441406 L 301.375 281.464844 L 301.375 151.890625 L 187.320312 85.703125 L 73.265625 151.488281 L 73.265625 281.066406 L 59.308594 289.039062 Z M 59.308594 143.914062 " fill-opacity="1" fill-rule="nonzero"/></g><g clip-path="url(#id2)"><path fill="#334355" d="M 148.238281 132.207031 L 148.238281 180.050781 L 187.320312 202.773438 L 226.402344 180.050781 L 226.402344 132.605469 L 319.320312 78.78125 L 319.320312 233.476562 L 187.320312 309.625 L 55.320312 233.476562 L 55.320312 78.78125 L 147.042969 131.808594 Z M 230.390625 134.597656 L 230.390625 182.042969 L 187.320312 207.160156 L 144.25 182.042969 L 144.25 134.597656 L 130.292969 126.625 L 130.292969 190.015625 L 187.320312 222.710938 L 244.347656 190.015625 L 244.347656 126.625 Z M 77.253906 95.925781 L 77.253906 220.714844 L 187.320312 284.507812 L 297.386719 220.714844 L 297.386719 95.925781 L 283.429688 103.898438 L 283.429688 212.742188 L 186.921875 268.558594 L 90.414062 212.742188 L 90.414062 103.5 Z M 94.800781 210.75 L 187.320312 264.175781 L 279.839844 210.75 L 279.839844 106.289062 L 265.882812 114.265625 L 265.882812 202.773438 L 187.320312 248.226562 L 108.757812 202.773438 L 108.757812 114.265625 L 94.800781 106.289062 Z M 112.746094 200.382812 L 187.320312 243.441406 L 261.894531 200.382812 L 261.894531 116.257812 L 247.9375 124.230469 L 247.9375 192.410156 L 186.921875 227.496094 L 125.90625 192.410156 L 125.90625 124.230469 L 111.949219 116.257812 L 111.949219 200.382812 Z M 59.308594 231.082031 L 187.320312 304.839844 L 315.332031 231.082031 L 315.332031 85.558594 L 301.375 93.53125 L 301.375 223.109375 L 187.320312 289.292969 L 73.265625 223.507812 L 73.265625 93.929688 L 59.308594 85.957031 Z M 59.308594 231.082031 " fill-opacity="1" fill-rule="nonzero"/></g></svg>